<svg width="27" height="31" viewBox="0 0 27 31" fill="none" xmlns="http://www.w3.org/2000/svg">
<g filter="url(#filter0_d_46_336)">
<path d="M13.5 12.5C10.7266 12.5 8.5 10.2734 8.5 7.5C8.5 4.76562 10.7266 2.5 13.5 2.5C16.2344 2.5 18.5 4.76562 18.5 7.5C18.5 10.2734 16.2344 12.5 13.5 12.5ZM15.4531 14.375C19.2031 14.375 22.25 17.4219 22.25 21.1719C22.25 21.9141 21.625 22.5 20.8828 22.5H6.07812C5.33594 22.5 4.75 21.9141 4.75 21.1719C4.75 17.4219 7.75781 14.375 11.5078 14.375H15.4531Z" fill="#1E2832"/>
</g>
<defs>
<filter id="filter0_d_46_336" x="-3" y="0" width="33" height="33" filterUnits="userSpaceOnUse" color-interpolation-filters="sRGB">
<feFlood flood-opacity="0" result="BackgroundImageFix"/>
<feColorMatrix in="SourceAlpha" type="matrix" values="0 0 0 0 0 0 0 0 0 0 0 0 0 0 0 0 0 0 127 0" result="hardAlpha"/>
<feOffset dy="4"/>
<feGaussianBlur stdDeviation="2"/>
<feComposite in2="hardAlpha" operator="out"/>
<feColorMatrix type="matrix" values="0 0 0 0 0 0 0 0 0 0 0 0 0 0 0 0 0 0 0.25 0"/>
<feBlend mode="normal" in2="BackgroundImageFix" result="effect1_dropShadow_46_336"/>
<feBlend mode="normal" in="SourceGraphic" in2="effect1_dropShadow_46_336" result="shape"/>
</filter>
</defs>
</svg>
